<svg id="e27a6jLcOyZ1" xmlns="http://www.w3.org/2000/svg" xmlns:xlink="http://www.w3.org/1999/xlink" viewBox="0 -130 882 1220" shape-rendering="geometricPrecision" text-rendering="geometricPrecision"><style><![CDATA[#e27a6jLcOyZ2_to {animation: e27a6jLcOyZ2_to__to 6000ms linear infinite normal forwards}@keyframes e27a6jLcOyZ2_to__to { 0% {transform: translate(431.592499px,370.66742px)} 25% {transform: translate(431.592499px,370.66742px)} 50% {transform: translate(431.592499px,250px)} 75% {transform: translate(431.592499px,370.67px)} 100% {transform: translate(431.592499px,370.67px)}} #e27a6jLcOyZ29_to {animation: e27a6jLcOyZ29_to__to 6000ms linear infinite normal forwards}@keyframes e27a6jLcOyZ29_to__to { 0% {transform: translate(709.287506px,546.766007px)} 50% {transform: translate(709.287506px,546.766007px)} 75% {transform: translate(709.287506px,400px)} 100% {transform: translate(709.287506px,546.77px)}} #e27a6jLcOyZ56_to {animation: e27a6jLcOyZ56_to__to 6000ms linear infinite normal forwards}@keyframes e27a6jLcOyZ56_to__to { 0% {transform: translate(172.712494px,543.756485px)} 25% {transform: translate(172.712494px,400px)} 50% {transform: translate(172.712494px,543.76px)} 100% {transform: translate(172.712494px,543.76px)}} #e27a6jLcOyZ83_to {animation: e27a6jLcOyZ83_to__to 6000ms linear infinite normal forwards}@keyframes e27a6jLcOyZ83_to__to { 0% {transform: translate(447.3965px,500px)} 25% {transform: translate(447.3965px,711.58px)} 75% {transform: translate(447.3965px,711.58px)} 100% {transform: translate(447.3965px,500px)}}]]></style><defs><linearGradient id="e27a6jLcOyZ20-fill" x1="345.671" y1="216.49" x2="345.671" y2="743.431" spreadMethod="pad" gradientUnits="userSpaceOnUse" gradientTransform="translate(0 0)"><stop id="e27a6jLcOyZ20-fill-0" offset="0%" stop-color="#5761d7"/><stop id="e27a6jLcOyZ20-fill-1" offset="100%" stop-color="#000b89"/></linearGradient><linearGradient id="e27a6jLcOyZ25-fill" x1="427.997" y1="0.506836" x2="427.997" y2="256.414" spreadMethod="pad" gradientUnits="userSpaceOnUse" gradientTransform="translate(0 0)"><stop id="e27a6jLcOyZ25-fill-0" offset="0%" stop-color="rgba(39,131,147,0)"/><stop id="e27a6jLcOyZ25-fill-1" offset="100%" stop-color="rgba(79,197,217,0.3)"/></linearGradient><linearGradient id="e27a6jLcOyZ26-fill" x1="427.997" y1="0.506836" x2="427.997" y2="256.414" spreadMethod="pad" gradientUnits="userSpaceOnUse" gradientTransform="translate(0 0)"><stop id="e27a6jLcOyZ26-fill-0" offset="0%" stop-color="rgba(39,131,147,0)"/><stop id="e27a6jLcOyZ26-fill-1" offset="100%" stop-color="rgba(79,197,217,0.3)"/></linearGradient><linearGradient id="e27a6jLcOyZ47-fill" x1="623.365" y1="392.589" x2="623.365" y2="919.529" spreadMethod="pad" gradientUnits="userSpaceOnUse" gradientTransform="translate(0 0)"><stop id="e27a6jLcOyZ47-fill-0" offset="0%" stop-color="#5761d7"/><stop id="e27a6jLcOyZ47-fill-1" offset="100%" stop-color="#000b89"/></linearGradient><linearGradient id="e27a6jLcOyZ52-fill" x1="705.692" y1="176.605" x2="705.692" y2="432.512" spreadMethod="pad" gradientUnits="userSpaceOnUse" gradientTransform="translate(0 0)"><stop id="e27a6jLcOyZ52-fill-0" offset="0%" stop-color="rgba(39,131,147,0)"/><stop id="e27a6jLcOyZ52-fill-1" offset="100%" stop-color="rgba(79,197,217,0.3)"/></linearGradient><linearGradient id="e27a6jLcOyZ53-fill" x1="705.692" y1="176.605" x2="705.692" y2="432.512" spreadMethod="pad" gradientUnits="userSpaceOnUse" gradientTransform="translate(0 0)"><stop id="e27a6jLcOyZ53-fill-0" offset="0%" stop-color="rgba(39,131,147,0)"/><stop id="e27a6jLcOyZ53-fill-1" offset="100%" stop-color="rgba(79,197,217,0.3)"/></linearGradient><linearGradient id="e27a6jLcOyZ74-fill" x1="86.7902" y1="389.579" x2="86.7902" y2="916.52" spreadMethod="pad" gradientUnits="userSpaceOnUse" gradientTransform="translate(0 0)"><stop id="e27a6jLcOyZ74-fill-0" offset="0%" stop-color="#5761d7"/><stop id="e27a6jLcOyZ74-fill-1" offset="100%" stop-color="#000b89"/></linearGradient><linearGradient id="e27a6jLcOyZ79-fill" x1="169.117" y1="173.596" x2="169.117" y2="429.503" spreadMethod="pad" gradientUnits="userSpaceOnUse" gradientTransform="translate(0 0)"><stop id="e27a6jLcOyZ79-fill-0" offset="0%" stop-color="rgba(39,131,147,0)"/><stop id="e27a6jLcOyZ79-fill-1" offset="100%" stop-color="rgba(79,197,217,0.3)"/></linearGradient><linearGradient id="e27a6jLcOyZ80-fill" x1="169.117" y1="173.596" x2="169.117" y2="429.503" spreadMethod="pad" gradientUnits="userSpaceOnUse" gradientTransform="translate(0 0)"><stop id="e27a6jLcOyZ80-fill-0" offset="0%" stop-color="rgba(39,131,147,0)"/><stop id="e27a6jLcOyZ80-fill-1" offset="100%" stop-color="rgba(79,197,217,0.3)"/></linearGradient><linearGradient id="e27a6jLcOyZ101-fill" x1="361.474" y1="557.399" x2="361.474" y2="1084.34" spreadMethod="pad" gradientUnits="userSpaceOnUse" gradientTransform="translate(0 0)"><stop id="e27a6jLcOyZ101-fill-0" offset="0%" stop-color="#5761d7"/><stop id="e27a6jLcOyZ101-fill-1" offset="100%" stop-color="#000b89"/></linearGradient><linearGradient id="e27a6jLcOyZ106-fill" x1="443.801" y1="341.416" x2="443.801" y2="597.323" spreadMethod="pad" gradientUnits="userSpaceOnUse" gradientTransform="translate(0 0)"><stop id="e27a6jLcOyZ106-fill-0" offset="0%" stop-color="rgba(39,131,147,0)"/><stop id="e27a6jLcOyZ106-fill-1" offset="100%" stop-color="rgba(79,197,217,0.3)"/></linearGradient><linearGradient id="e27a6jLcOyZ107-fill" x1="443.801" y1="341.416" x2="443.801" y2="597.323" spreadMethod="pad" gradientUnits="userSpaceOnUse" gradientTransform="translate(0 0)"><stop id="e27a6jLcOyZ107-fill-0" offset="0%" stop-color="rgba(39,131,147,0)"/><stop id="e27a6jLcOyZ107-fill-1" offset="100%" stop-color="rgba(79,197,217,0.3)"/></linearGradient></defs><g id="e27a6jLcOyZ2_to" transform="translate(431.592499,370.66742)"><g transform="translate(-431.592499,-370.667419)"><path d="M432.213,320.577l131.921-76.313l3.099,374.933-135.02,77.367v-375.987Z" fill="#4ee6e4"/><path d="M564.258,603.884l12.399-5.27l27.648,15.746-172.061,98.755v-9.485-3.781-5.084L565.002,619.94l-.744-16.056Z" fill="#327aa8"/><path d="M432.213,713.115l171.534-98.631v28.331L432.213,740.392v-27.277Z" fill="#312a91"/><path d="M564.258,546.355l12.398-5.269l27.649,15.746-172.061,98.755v-9.485-3.782-5.083l132.758-74.825-.744-16.057Z" fill="#327aa8"/><path d="M432.213,655.588l171.534-98.631v28.331L432.213,682.865v-27.277Z" fill="#312a91"/><path d="M562.894,494.652l12.399-5.269l27.648,15.746L430.88,603.884v-9.485-3.782-5.083l132.758-74.826-.744-16.056Z" fill="#327aa8"/><path d="M430.849,603.885l171.534-98.631v28.331L430.849,631.162v-27.277Z" fill="#312a91"/><path d="M562.274,436.008l12.399-5.27l27.649,15.746L430.26,545.239v-9.485-3.781-5.084l132.758-74.825-.744-16.056Z" fill="#327aa8"/><path d="M430.229,545.239l171.535-98.631v28.331L430.229,572.516v-27.277Z" fill="#312a91"/><path d="M564.01,377.61l12.398-5.269l27.649,15.746-172.061,98.755v-9.485-3.782-5.083l132.758-74.826-.744-16.056Z" fill="#327aa8"/><path d="M431.965,486.843l171.534-98.631v28.331L431.965,514.12v-27.277Z" fill="#312a91"/><path d="M563.514,318.345l12.398-5.27l27.649,15.746L431.5,427.576v-9.485-3.781-5.084l132.758-74.825-.744-16.056Z" fill="#327aa8"/><path d="M431.469,427.577l171.534-98.631v28.331L431.469,454.854v-27.277Z" fill="#312a91"/><path d="M562.274,268.131l12.399-5.27l27.649,15.747L430.26,377.362v-9.485-3.781-5.084l132.758-74.825-.744-16.056Z" fill="#327aa8"/><path d="M430.229,377.363l171.535-98.631v28.331L430.229,404.64v-27.277Z" fill="#312a91"/><path d="M431.593,318.098l171.534-98.631v28.331L431.593,345.375v-27.277Z" fill="#312a91"/><path d="M431.593,318.098l31.926-18.722v423.226l-31.678,18.226-.248-422.73Z" fill="#312a91"/><path d="M258.88,216.49L431.593,318.221l.248,422.606L258.88,645.172v-428.682Z" fill="url(#e27a6jLcOyZ20-fill)"/><path d="M258.88,216.49l172.713-97.886L603.065,219.59L431.593,318.221L258.88,216.49Z" fill="#c4c4c4"/><path d="M258.88,216.49l172.713-97.886L603.065,219.59L431.593,318.221L258.88,216.49Z" fill="#c4c4c4"/><path d="M362.657,217.743l65.576-37.209l65.105,38.388-65.105,37.492-65.576-38.671Z" fill="#4fc5d9"/><path d="M362.657,217.743l65.576-37.209l65.105,38.388-65.105,37.492-65.576-38.671Z" fill="#4fc5d9"/><path d="M362.657,217.744v-217.237164h130.681v218.415164l-65.105,37.492-65.576-38.67Z" fill="url(#e27a6jLcOyZ25-fill)"/><path d="M362.657,217.744v-217.237164h130.681v218.415164l-65.105,37.492-65.576-38.67Z" fill="url(#e27a6jLcOyZ26-fill)"/><path d="M362.657,217.743l65.576-37.209l65.105,38.388-21.45,12.198-43.209-25.851-43.333,25.851-22.689-13.377Z" fill="#42e8e0"/><path d="M362.657,217.743l65.576-37.209l65.105,38.388-21.45,12.198-43.209-25.851-43.333,25.851-22.689-13.377Z" fill="#42e8e0"/></g></g><g id="e27a6jLcOyZ29_to" transform="translate(709.287506,546.766007)"><g transform="translate(-709.287506,-546.766006)"><path d="M709.907,496.676l131.922-76.314l3.099,374.934-135.021,77.367v-375.987Z" fill="#4ee6e4"/><path d="M841.953,779.981l12.398-5.269L882,790.458L709.938,889.213v-9.485-3.782-5.083l132.758-74.826-.743-16.056Z" fill="#327aa8"/><path d="M709.907,889.213l171.535-98.631v28.331L709.907,916.49v-27.277Z" fill="#312a91"/><path d="M841.953,722.453l12.398-5.269L882,732.93L709.938,831.685v-9.485-3.782-5.083l132.758-74.826-.743-16.056Z" fill="#327aa8"/><path d="M709.907,831.685l171.535-98.631v28.331L709.907,858.961v-27.276Z" fill="#312a91"/><path d="M840.589,670.75l12.398-5.27l27.649,15.747-172.062,98.754v-9.484-3.782-5.083l132.758-74.826-.743-16.056Z" fill="#327aa8"/><path d="M708.543,779.982l171.535-98.63v28.33L708.543,807.259v-27.277Z" fill="#312a91"/><path d="M839.969,612.105l12.398-5.269l27.649,15.746-172.061,98.755v-9.485-3.782-5.083l132.758-74.825-.744-16.057Z" fill="#327aa8"/><path d="M707.924,721.337l171.534-98.631v28.331L707.924,748.614v-27.277Z" fill="#312a91"/><path d="M841.705,553.708l12.398-5.27l27.649,15.747L709.691,662.94v-9.485-3.782-5.083l132.758-74.826-.744-16.056Z" fill="#327aa8"/><path d="M709.66,662.94l171.534-98.63v28.33L709.66,690.217v-27.277Z" fill="#312a91"/><path d="M841.209,494.443l12.398-5.269l27.649,15.746-172.061,98.755v-9.485-3.782-5.083l132.758-74.826-.744-16.056Z" fill="#327aa8"/><path d="M709.164,603.676l171.534-98.631v28.331L709.164,630.953v-27.277Z" fill="#312a91"/><path d="M839.969,444.229l12.398-5.269l27.649,15.746-172.061,98.755v-9.485-3.782-5.083l132.758-74.825-.744-16.057Z" fill="#327aa8"/><path d="M707.924,553.461L879.458,454.83v28.331L707.924,580.738v-27.277Z" fill="#312a91"/><path d="M709.288,494.196l171.534-98.631v28.331L709.288,521.473v-27.277Z" fill="#312a91"/><path d="M709.288,494.196l31.926-18.721v423.226l-31.678,18.226-.248-422.731Z" fill="#312a91"/><path d="M536.575,392.589l172.713,101.73.248,422.606L536.575,821.27v-428.681Z" fill="url(#e27a6jLcOyZ47-fill)"/><path d="M536.575,392.589l172.713-97.887L880.76,395.689L709.288,494.32L536.575,392.589Z" fill="#c4c4c4"/><path d="M536.575,392.589l172.713-97.887L880.76,395.689L709.288,494.32L536.575,392.589Z" fill="#c4c4c4"/><path d="M640.351,393.842l65.576-37.209l65.106,38.387-65.106,37.492-65.576-38.67Z" fill="#4fc5d9"/><path d="M640.351,393.842l65.576-37.209l65.106,38.387-65.106,37.492-65.576-38.67Z" fill="#4fc5d9"/><path d="M640.351,393.842v-217.237h130.682v218.416l-65.106,37.491-65.576-38.67Z" fill="url(#e27a6jLcOyZ52-fill)"/><path d="M640.351,393.842v-217.237h130.682v218.416l-65.106,37.491-65.576-38.67Z" fill="url(#e27a6jLcOyZ53-fill)"/><path d="M640.351,393.842l65.576-37.209l65.106,38.387-21.45,12.199-43.209-25.851-43.333,25.851-22.69-13.377Z" fill="#42e8e0"/><path d="M640.351,393.842l65.576-37.209l65.106,38.387-21.45,12.199-43.209-25.851-43.333,25.851-22.69-13.377Z" fill="#42e8e0"/></g></g><g id="e27a6jLcOyZ56_to" transform="translate(172.712494,543.756485)"><g transform="translate(-172.712494,-543.756485)"><path d="M173.332,493.666l131.921-76.313l3.1,374.933-135.021,77.367v-375.987Z" fill="#4ee6e4"/><path d="M305.378,776.973l12.398-5.27l27.649,15.746-172.061,98.755v-9.485-3.781-5.084l132.757-74.825-.743-16.056Z" fill="#327aa8"/><path d="M173.332,886.204l171.535-98.631v28.331L173.332,913.481v-27.277Z" fill="#312a91"/><path d="M305.377,719.444l12.399-5.269l27.649,15.746-172.062,98.755v-9.485-3.782-5.083L306.121,735.5l-.744-16.056Z" fill="#327aa8"/><path d="M173.332,828.677l171.535-98.631v28.331L173.332,855.954v-27.277Z" fill="#312a91"/><path d="M304.014,667.741l12.398-5.269l27.649,15.746L172,776.973v-9.485-3.782-5.083l132.757-74.826-.743-16.056Z" fill="#327aa8"/><path d="M171.969,776.974l171.534-98.631v28.331L171.969,804.251v-27.277Z" fill="#312a91"/><path d="M303.394,609.097l12.398-5.27l27.649,15.746L171.38,718.328v-9.485-3.781-5.084l132.758-74.825-.744-16.056Z" fill="#327aa8"/><path d="M171.349,718.328l171.534-98.631v28.331L171.349,745.605v-27.277Z" fill="#312a91"/><path d="M305.13,550.699l12.398-5.269l27.649,15.746-172.062,98.755v-9.485-3.782-5.083l132.758-74.826-.743-16.056Z" fill="#327aa8"/><path d="M173.084,659.931L344.619,561.3v28.331L173.084,687.208v-27.277Z" fill="#312a91"/><path d="M304.633,491.433l12.399-5.269l27.649,15.746-172.062,98.755v-9.485-3.781-5.084L305.377,507.49l-.744-16.057Z" fill="#327aa8"/><path d="M172.588,600.665l171.535-98.631v28.331L172.588,627.942v-27.277Z" fill="#312a91"/><path d="M303.394,441.22l12.398-5.27l27.649,15.746L171.38,550.451v-9.485-3.781-5.084l132.758-74.825-.744-16.056Z" fill="#327aa8"/><path d="M171.349,550.452l171.534-98.631v28.331L171.349,577.729v-27.277Z" fill="#312a91"/><path d="M172.712,491.186l171.535-98.63v28.33L172.712,518.463v-27.277Z" fill="#312a91"/><path d="M172.712,491.187l31.927-18.722v423.226L172.96,913.917l-.248-422.73Z" fill="#312a91"/><path d="M0,389.579L172.712,491.31l.248,422.606L0,818.261v-428.682Z" fill="url(#e27a6jLcOyZ74-fill)"/><path d="M0,389.579l172.712-97.887L344.185,392.679L172.712,491.31L0,389.579Z" fill="#c4c4c4"/><path d="M0,389.579l172.712-97.887L344.185,392.679L172.712,491.31L0,389.579Z" fill="#c4c4c4"/><path d="M103.776,390.832l65.576-37.209l65.106,38.387-65.106,37.492-65.576-38.67Z" fill="#4fc5d9"/><path d="M103.776,390.832l65.576-37.209l65.106,38.387-65.106,37.492-65.576-38.67Z" fill="#4fc5d9"/><path d="M103.776,390.833v-217.237h130.682v218.415l-65.106,37.492-65.576-38.67Z" fill="url(#e27a6jLcOyZ79-fill)"/><path d="M103.776,390.833v-217.237h130.682v218.415l-65.106,37.492-65.576-38.67Z" fill="url(#e27a6jLcOyZ80-fill)"/><path d="M103.776,390.832l65.576-37.209l65.106,38.387-21.45,12.199-43.209-25.851-43.333,25.851-22.69-13.377Z" fill="#42e8e0"/><path d="M103.776,390.832l65.576-37.209l65.106,38.387-21.45,12.199-43.209-25.851-43.333,25.851-22.69-13.377Z" fill="#42e8e0"/></g></g><g id="e27a6jLcOyZ83_to" transform="translate(447.3965,500)"><g transform="translate(-447.396499,-711.577972)"><path d="M448.017,661.486l131.921-76.313l3.099,374.933-135.02,77.364v-375.984Z" fill="#4ee6e4"/><path d="M580.062,944.792l12.398-5.27l27.649,15.747-172.061,98.751v-9.48-3.78-5.09l132.758-74.822-.744-16.056Z" fill="#327aa8"/><path d="M448.017,1054.02l171.534-98.627v28.33L448.017,1081.3v-27.28Z" fill="#312a91"/><path d="M580.062,887.265l12.398-5.269l27.649,15.746-172.061,98.755v-9.485-3.781-5.084l132.758-74.825-.744-16.057Z" fill="#327aa8"/><path d="M448.017,996.497l171.534-98.631v28.331L448.017,1023.77v-27.273Z" fill="#312a91"/><path d="M578.698,835.56l12.398-5.269l27.649,15.746-172.061,98.755v-9.485-3.781-5.084l132.758-74.825-.744-16.057Z" fill="#327aa8"/><path d="M446.653,944.793l171.534-98.631v28.331L446.653,972.07v-27.277Z" fill="#312a91"/><path d="M578.078,776.916l12.399-5.27l27.648,15.747-172.061,98.755v-9.485-3.782-5.083l132.758-74.826-.744-16.056Z" fill="#327aa8"/><path d="M446.033,886.147l171.535-98.63v28.33L446.033,913.424v-27.277Z" fill="#312a91"/><path d="M579.814,718.519l12.398-5.269l27.649,15.746L447.8,827.751v-9.485-3.781-5.084l132.758-74.825-.744-16.057Z" fill="#327aa8"/><path d="M447.769,827.752l171.534-98.631v28.331L447.769,855.029v-27.277Z" fill="#312a91"/><path d="M579.318,659.253l12.398-5.27l27.649,15.747-172.061,98.754v-9.484-3.782-5.083l132.758-74.826-.744-16.056Z" fill="#327aa8"/><path d="M447.273,768.485l171.534-98.631v28.331L447.273,795.762v-27.277Z" fill="#312a91"/><path d="M578.078,609.04l12.399-5.269l27.649,15.746-172.062,98.755v-9.485-3.782-5.083l132.758-74.826-.744-16.056Z" fill="#327aa8"/><path d="M446.033,718.271l171.535-98.63v28.33L446.033,745.548v-27.277Z" fill="#312a91"/><path d="M447.397,659.007l171.534-98.631v28.331L447.397,686.284v-27.277Z" fill="#312a91"/><path d="M447.397,659.007l31.926-18.722v423.225l-31.678,18.23-.248-422.733Z" fill="#312a91"/><path d="M274.684,557.399L447.397,659.13l.248,422.61-172.961-95.659v-428.682Z" fill="url(#e27a6jLcOyZ101-fill)"/><path d="M274.684,557.4l172.713-97.887L618.869,560.499L447.397,659.13L274.684,557.4Z" fill="#c4c4c4"/><path d="M274.684,557.4l172.713-97.887L618.869,560.499L447.397,659.13L274.684,557.4Z" fill="#c4c4c4"/><path d="M378.46,558.653l65.576-37.21l65.106,38.388-65.106,37.492-65.576-38.67Z" fill="#4fc5d9"/><path d="M378.46,558.653l65.576-37.21l65.106,38.388-65.106,37.492-65.576-38.67Z" fill="#4fc5d9"/><path d="M378.46,558.653v-217.237h130.682v218.415l-65.106,37.492-65.576-38.67Z" fill="url(#e27a6jLcOyZ106-fill)"/><path d="M378.46,558.653v-217.237h130.682v218.415l-65.106,37.492-65.576-38.67Z" fill="url(#e27a6jLcOyZ107-fill)"/><path d="M378.46,558.653l65.576-37.21l65.106,38.388-21.45,12.199-43.209-25.851L401.15,572.03l-22.69-13.377Z" fill="#42e8e0"/><path d="M378.46,558.653l65.576-37.21l65.106,38.388-21.45,12.199-43.209-25.851L401.15,572.03l-22.69-13.377Z" fill="#42e8e0"/></g></g></svg>