<svg width="400" height="74" viewBox="0 0 400 74" fill="none" xmlns="http://www.w3.org/2000/svg">
<g clip-path="url(#clip0_601_303)">
<path d="M34.6719 43.1775L50.381 4.61296H68.5705L34.6719 73.2542L0.865234 4.61296H18.9628L34.6719 43.1775ZM91.326 36.9039C91.326 40.7173 92.0609 44.1001 93.5308 47.0524C95.0619 49.9433 97.1753 52.219 99.87 53.8797C102.626 55.5403 105.841 56.3707 109.516 56.3707C113.129 56.3707 116.283 55.5403 118.978 53.8797C121.734 52.219 123.847 49.9433 125.317 47.0524C126.848 44.1001 127.614 40.7173 127.614 36.9039C127.614 33.0905 126.879 29.7384 125.409 26.8476C123.939 23.8952 121.857 21.5888 119.162 19.9281C116.467 18.2674 113.252 17.4371 109.516 17.4371C105.841 17.4371 102.626 18.2674 99.87 19.9281C97.1753 21.5888 95.0619 23.8952 93.5308 26.8476C92.0609 29.7384 91.326 33.0905 91.326 36.9039ZM74.882 36.9039C74.882 31.9218 75.7394 27.3704 77.4542 23.2494C79.2303 19.1285 81.6801 15.5611 84.8035 12.5473C87.927 9.53348 91.6016 7.22699 95.8279 5.62782C100.054 3.96714 104.616 3.1368 109.516 3.1368C114.477 3.1368 119.039 3.96714 123.204 5.62782C127.43 7.22699 131.104 9.53348 134.228 12.5473C137.351 15.5611 139.771 19.1285 141.485 23.2494C143.2 27.3704 144.058 31.9218 144.058 36.9039C144.058 41.8859 143.2 46.4681 141.485 50.6506C139.832 54.833 137.443 58.4619 134.32 61.5372C131.258 64.6125 127.614 67.0113 123.388 68.7335C119.162 70.3942 114.538 71.2245 109.516 71.2245C104.433 71.2245 99.7782 70.3942 95.5518 68.7335C91.326 67.0113 87.6514 64.6125 84.5279 61.5372C81.4657 58.4619 79.0772 54.833 77.3624 50.6506C75.7088 46.4681 74.882 41.8859 74.882 36.9039ZM190.476 45.8531V33.8593H222.996C223.303 39.0258 222.782 43.8541 221.435 48.3441C220.087 52.8341 218.005 56.8012 215.188 60.2456C212.371 63.69 208.849 66.3962 204.623 68.3644C200.397 70.2712 195.559 71.2245 190.108 71.2245C184.964 71.2245 180.248 70.4249 175.961 68.8257C171.674 67.1651 167.969 64.8278 164.845 61.814C161.722 58.7387 159.272 55.1098 157.496 50.9274C155.781 46.6834 154.924 42.0089 154.924 36.9039C154.924 31.7988 155.812 27.1858 157.588 23.0649C159.364 18.8825 161.875 15.3151 165.121 12.3628C168.367 9.41047 172.164 7.13473 176.512 5.53555C180.86 3.93639 185.576 3.1368 190.659 3.1368C195.192 3.1368 199.264 3.78262 202.878 5.07425C206.491 6.36589 209.676 8.18034 212.432 10.5176C215.249 12.7933 217.668 15.4381 219.689 18.4519L205.909 25.6482C204.439 23.0649 202.449 20.9429 199.938 19.2823C197.488 17.5601 194.395 16.699 190.659 16.699C187.107 16.699 183.831 17.4986 180.83 19.0977C177.89 20.6969 175.532 23.0034 173.756 26.0172C172.041 28.9695 171.184 32.5984 171.184 36.9039C171.184 41.1478 172.011 44.8382 173.664 47.975C175.379 51.0504 177.676 53.4491 180.554 55.1713C183.494 56.832 186.862 57.6623 190.659 57.6623C192.987 57.6623 195.1 57.3855 196.998 56.832C198.897 56.2169 200.52 55.3866 201.867 54.341C203.215 53.2338 204.348 51.973 205.266 50.5583C206.246 49.0822 207.012 47.5137 207.563 45.8531H190.476ZM245.336 56.7397L246.438 44.8382H278.316L279.326 56.7397H245.336ZM262.148 28.3237L253.145 49.1744L253.88 52.588L245.887 69.1948H228.341L262.148 0.553528L296.046 69.1948H278.408L270.691 53.2338L271.242 49.2667L262.148 28.3237ZM294.488 18.5442V4.61296H345.382V18.5442H327.652V69.1948H312.126V18.5442H294.488ZM367.297 69.1948V56.3707H399.726V69.1948H367.297ZM367.297 17.4371V4.61296H399.726V17.4371H367.297ZM367.297 41.5169V28.9695H397.888V41.5169H367.297ZM357.008 4.61296H371.89V69.1948H357.008V4.61296Z" fill="white"/>
</g>
<defs>
<clipPath id="clip0_601_303">
<rect width="400" height="74" fill="white"/>
</clipPath>
</defs>
</svg>
