<svg width="80" height="75" viewBox="0 0 80 75" fill="none" xmlns="http://www.w3.org/2000/svg">
<path d="M19.4945 16.0757C19.0171 16.0757 18.5554 15.9049 18.1929 15.5942L4.10492 3.51875C2.69512 2.31035 3.54969 0.000238433 5.4065 0.000238441L76.5081 0.00023873C78.0179 0.000238736 78.9833 1.6092 78.2728 2.94142L71.8325 15.0169C71.4849 15.6686 70.8064 16.0757 70.0678 16.0757L19.4945 16.0757Z" fill="white"/>
<path d="M72.3424 43.8565C72.0138 44.5607 71.3071 45.0107 70.53 45.0107H30.2081C29.4721 45.0107 28.7956 44.6066 28.4469 43.9585L21.9486 31.8831C21.2316 30.5506 22.1967 28.9353 23.7098 28.9353H70.53C71.3071 28.9353 72.0138 29.3854 72.3424 30.0895L75.16 36.1272C75.4102 36.6633 75.4102 37.2827 75.16 37.8188L72.3424 43.8565Z" fill="white"/>
<path d="M20.3071 57.4851C20.6747 58.0595 21.3097 58.4069 21.9917 58.4069H70.5667C71.3242 58.4069 72.0167 58.835 72.3555 59.5125L78.3932 71.588C79.0581 72.9178 78.0911 74.4824 76.6044 74.4824H14.0249C13.3046 74.4824 12.6399 74.0951 12.2848 73.4684L4.34432 59.4557C3.97874 58.8106 4.0001 58.0162 4.39982 57.3916L10.639 47.6428C11.4257 46.4137 13.2214 46.4137 14.0081 47.6428L20.3071 57.4851Z" fill="white"/>
</svg>
