<svg width="549" height="76" viewBox="0 0 549 76" fill="none" xmlns="http://www.w3.org/2000/svg">
<path d="M36.232 43.928L19.816 3.8H0.904L36.232 75.224L71.656 3.8H52.648L36.232 43.928ZM95.4355 37.4C95.4355 33.432 96.2035 29.944 97.7395 26.936C99.3395 23.864 101.548 21.464 104.364 19.736C107.244 18.008 110.604 17.144 114.444 17.144C118.348 17.144 121.708 18.008 124.524 19.736C127.34 21.464 129.516 23.864 131.052 26.936C132.588 29.944 133.356 33.432 133.356 37.4C133.356 41.368 132.556 44.888 130.956 47.96C129.42 50.968 127.212 53.336 124.332 55.064C121.516 56.792 118.22 57.656 114.444 57.656C110.604 57.656 107.244 56.792 104.364 55.064C101.548 53.336 99.3395 50.968 97.7395 47.96C96.2035 44.888 95.4355 41.368 95.4355 37.4ZM78.2515 37.4C78.2515 42.584 79.1155 47.352 80.8435 51.704C82.6355 56.056 85.1315 59.832 88.3315 63.032C91.5955 66.232 95.4355 68.728 99.8515 70.52C104.268 72.248 109.132 73.112 114.444 73.112C119.692 73.112 124.524 72.248 128.94 70.52C133.356 68.728 137.164 66.232 140.364 63.032C143.628 59.832 146.124 56.056 147.852 51.704C149.644 47.352 150.54 42.584 150.54 37.4C150.54 32.216 149.644 27.48 147.852 23.192C146.06 18.904 143.532 15.192 140.268 12.056C137.004 8.92 133.164 6.52 128.748 4.856C124.396 3.128 119.628 2.264 114.444 2.264C109.324 2.264 104.556 3.128 100.14 4.856C95.7235 6.52 91.8835 8.92 88.6195 12.056C85.3555 15.192 82.7955 18.904 80.9395 23.192C79.1475 27.48 78.2515 32.216 78.2515 37.4ZM165.735 3.8V71H208.935V57.08H181.959V3.8H165.735ZM232.006 71H265.894V57.656H232.006V71ZM232.006 17.144H265.894V3.8H232.006V17.144ZM232.006 42.2H263.974V29.144H232.006V42.2ZM221.254 3.8V71H236.806V3.8H221.254ZM317.21 46.712H335.066C334.49 48.44 333.69 50.072 332.666 51.608C331.706 53.08 330.522 54.392 329.114 55.544C327.706 56.632 326.01 57.496 324.026 58.136C322.042 58.712 319.834 59 317.402 59C313.434 59 309.914 58.136 306.842 56.408C303.834 54.616 301.434 52.12 299.642 48.92C297.914 45.656 297.05 41.816 297.05 37.4C297.05 32.92 297.946 29.144 299.738 26.072C301.594 22.936 304.058 20.536 307.13 18.872C310.266 17.208 313.69 16.376 317.402 16.376C321.306 16.376 324.538 17.272 327.098 19.064C329.722 20.792 331.802 23 333.338 25.688L347.738 18.2C345.626 15.064 343.098 12.312 340.154 9.944C337.274 7.512 333.946 5.624 330.17 4.27999C326.394 2.936 322.138 2.264 317.402 2.264C312.09 2.264 307.162 3.096 302.618 4.75999C298.074 6.424 294.106 8.792 290.714 11.864C287.322 14.936 284.698 18.648 282.842 23C280.986 27.288 280.058 32.088 280.058 37.4C280.058 42.712 280.954 47.576 282.746 51.992C284.602 56.344 287.162 60.12 290.426 63.32C293.69 66.456 297.562 68.888 302.042 70.616C306.522 72.28 311.45 73.112 316.826 73.112C322.522 73.112 327.578 72.12 331.994 70.136C336.41 68.088 340.09 65.272 343.034 61.688C345.978 58.104 348.154 53.976 349.562 49.304C350.97 44.632 351.514 39.608 351.194 34.232H317.21V46.712ZM366.885 3.8V71H383.397V3.8H366.885ZM415.779 37.4C415.779 33.432 416.547 29.944 418.083 26.936C419.683 23.864 421.891 21.464 424.707 19.736C427.587 18.008 430.947 17.144 434.787 17.144C438.691 17.144 442.051 18.008 444.867 19.736C447.683 21.464 449.859 23.864 451.395 26.936C452.931 29.944 453.699 33.432 453.699 37.4C453.699 41.368 452.899 44.888 451.299 47.96C449.763 50.968 447.555 53.336 444.675 55.064C441.859 56.792 438.563 57.656 434.787 57.656C430.947 57.656 427.587 56.792 424.707 55.064C421.891 53.336 419.683 50.968 418.083 47.96C416.547 44.888 415.779 41.368 415.779 37.4ZM398.595 37.4C398.595 42.584 399.459 47.352 401.187 51.704C402.979 56.056 405.475 59.832 408.675 63.032C411.939 66.232 415.779 68.728 420.195 70.52C424.611 72.248 429.475 73.112 434.787 73.112C440.035 73.112 444.867 72.248 449.283 70.52C453.699 68.728 457.507 66.232 460.707 63.032C463.971 59.832 466.467 56.056 468.195 51.704C469.987 47.352 470.883 42.584 470.883 37.4C470.883 32.216 469.987 27.48 468.195 23.192C466.403 18.904 463.875 15.192 460.611 12.056C457.347 8.92 453.507 6.52 449.091 4.856C444.739 3.128 439.971 2.264 434.787 2.264C429.667 2.264 424.899 3.128 420.483 4.856C416.067 6.52 412.227 8.92 408.963 12.056C405.699 15.192 403.139 18.904 401.283 23.192C399.491 27.48 398.595 32.216 398.595 37.4ZM532.447 3.8V41.624L486.079 0.439999V71H501.631V33.176L548.095 74.36V3.8H532.447Z" fill="white"/>
</svg>
